<svg xmlns="http://www.w3.org/2000/svg" viewBox="0 0 180 120" role="img" aria-labelledby="title-scanner">
  <title id="title-scanner">Hand scanner emoji style</title>
  <defs>
    <linearGradient id="scannerShell" x1="40" y1="18" x2="132" y2="96" gradientUnits="userSpaceOnUse">
      <stop offset="0" stop-color="#5c6973" />
      <stop offset="1" stop-color="#20292f" />
    </linearGradient>
    <linearGradient id="scannerOrange" x1="74" y1="18" x2="120" y2="46" gradientUnits="userSpaceOnUse">
      <stop offset="0" stop-color="#ffbe63" />
      <stop offset="1" stop-color="#f36a4c" />
    </linearGradient>
    <linearGradient id="scannerBeam" x1="118" y1="38" x2="162" y2="30" gradientUnits="userSpaceOnUse">
      <stop offset="0" stop-color="#6fd4ff" stop-opacity="0.95" />
      <stop offset="1" stop-color="#2f7fd6" stop-opacity="0" />
    </linearGradient>
  </defs>
  <ellipse cx="88" cy="102" rx="56" ry="12" fill="#1d262c" opacity="0.12" />
  <path
    d="M48 40c0-11 9-20 21-20h39c17 0 29 11 29 25 0 10-6 18-16 23l-16 7-10 19c-4 8-14 11-22 7l-13-7c-9-5-12-16-7-25l10-17c-10-2-15-6-15-12z"
    fill="url(#scannerShell)"
    stroke="#1d262c"
    stroke-width="5"
    stroke-linejoin="round"
  />
  <path
    d="M83 22h31c10 0 19 7 20 16l-6 4c-6 4-13 6-20 6H78z"
    fill="url(#scannerOrange)"
  />
  <rect x="78" y="29" width="35" height="17" rx="8.5" fill="#fff9ef" opacity="0.94" />
  <path d="M88 58h18" stroke="#aeb9c1" stroke-width="7" stroke-linecap="round" opacity="0.65" />
  <path d="M118 35l38-7" stroke="url(#scannerBeam)" stroke-width="7" stroke-linecap="round" />
  <path d="M120 45l32 4" stroke="url(#scannerBeam)" stroke-width="5" stroke-linecap="round" opacity="0.85" />
  <path d="M76 34h18" stroke="#ffffff" stroke-width="4" stroke-linecap="round" opacity="0.55" />
</svg>
