<svg xmlns="http://www.w3.org/2000/svg" viewBox="0 0 64 64" fill="none">
  <defs>
    <linearGradient id="cap-crown" x1="16" y1="20" x2="44" y2="42" gradientUnits="userSpaceOnUse">
      <stop stop-color="#ff8f76" />
      <stop offset="1" stop-color="#ee5a49" />
    </linearGradient>
    <linearGradient id="cap-brim" x1="30" y1="32" x2="54" y2="40" gradientUnits="userSpaceOnUse">
      <stop stop-color="#ffc49a" />
      <stop offset="1" stop-color="#ff9f66" />
    </linearGradient>
  </defs>
  <path d="M16.5 35.4c0-9.8 7.9-17.7 17.7-17.7h3.3c6.6 0 11.9 5.3 11.9 11.9v3.5c0 1.9-1.5 3.4-3.4 3.4H19.9c-1.9 0-3.4-1.5-3.4-3.4v2.3Z" fill="url(#cap-crown)" />
  <path d="M33.7 30.8c4.2 0 8.2 1.3 11.6 3.7l2 1.4c1 .7.5 2.3-.8 2.3H27.7c-.2-4 2.6-7.4 6-7.4Z" fill="url(#cap-brim)" />
  <path d="M31.9 17.9v8.8" stroke="#ffcab8" stroke-width="2" stroke-linecap="round" opacity=".8" />
  <path d="M22.1 25.9c2.1-2.5 5.3-4.1 8.8-4.1h4.4" stroke="#ffd7cc" stroke-width="2.2" stroke-linecap="round" opacity=".72" />
  <ellipse cx="26.4" cy="25.8" rx="5.5" ry="3.5" transform="rotate(-18 26.4 25.8)" fill="#fff" opacity=".15" />
</svg>
